<svg width="29" height="29" viewBox="0 0 29 29" fill="none" xmlns="http://www.w3.org/2000/svg">
<path d="M24.6642 24.6642L19.5635 19.5635M19.5635 19.5635C20.436 18.691 21.1281 17.6552 21.6003 16.5152C22.0725 15.3752 22.3155 14.1534 22.3155 12.9195C22.3155 11.6856 22.0725 10.4637 21.6003 9.32376C21.1281 8.18378 20.436 7.14797 19.5635 6.27547C18.691 5.40297 17.6552 4.71086 16.5152 4.23867C15.3752 3.76647 14.1534 3.52344 12.9195 3.52344C11.6856 3.52344 10.4637 3.76647 9.32376 4.23867C8.18378 4.71086 7.14797 5.40297 6.27547 6.27547C4.51337 8.03757 3.52344 10.4275 3.52344 12.9195C3.52344 15.4114 4.51337 17.8014 6.27547 19.5635C8.03757 21.3256 10.4275 22.3155 12.9195 22.3155C15.4114 22.3155 17.8014 21.3256 19.5635 19.5635Z" stroke="white" stroke-width="2.34895" stroke-linecap="round" stroke-linejoin="round"/>
<g clip-path="url(#clip0_485_646)">
<path d="M8.87842 11.9937V13.1886M10.4716 10.4005V14.7818M12.0648 9.20557V16.375M13.658 11.1971V13.9852M15.2512 10.0022V15.1801M16.8444 11.9937V13.1886" stroke="#509CDB" stroke-width="0.796599" stroke-linecap="round" stroke-linejoin="round"/>
</g>
<defs>
<clipPath id="clip0_485_646">
<rect width="9.55919" height="9.55919" fill="white" transform="translate(8.08154 8.01074)"/>
</clipPath>
</defs>
</svg>
