<svg width="264" height="36" viewBox="0 0 264 36" fill="none" xmlns="http://www.w3.org/2000/svg">
<path d="M256.832 12.2299C257.48 10.961 258.398 9.97557 259.586 9.27362C260.801 8.57168 262.272 8.2207 264 8.2207V12.0274H263.028C258.898 12.0274 256.832 14.2682 256.832 18.7499V30.8179H253.147V8.62567H256.832V12.2299Z" fill="white"/>
<path d="M248.283 18.8714C248.283 19.5733 248.242 20.3158 248.161 21.0987H230.423C230.558 23.2856 231.301 24.9999 232.651 26.2418C234.028 27.4567 235.688 28.0642 237.632 28.0642C239.225 28.0642 240.548 27.6997 241.601 26.9708C242.68 26.2148 243.436 25.2159 243.868 23.974H247.837C247.243 26.1068 246.055 27.8482 244.273 29.1981C242.491 30.521 240.278 31.1824 237.632 31.1824C235.526 31.1824 233.636 30.71 231.962 29.765C230.315 28.8201 229.02 27.4837 228.075 25.7559C227.13 24.001 226.657 21.9762 226.657 19.6813C226.657 17.3865 227.116 15.3752 228.034 13.6473C228.952 11.9194 230.234 10.5965 231.881 9.67862C233.555 8.73369 235.472 8.26123 237.632 8.26123C239.738 8.26123 241.601 8.7202 243.22 9.63812C244.84 10.5561 246.082 11.825 246.946 13.4448C247.837 15.0377 248.283 16.8466 248.283 18.8714ZM244.476 18.102C244.476 16.6981 244.165 15.4967 243.544 14.4977C242.923 13.4718 242.073 12.7024 240.993 12.1894C239.94 11.6495 238.766 11.3795 237.47 11.3795C235.607 11.3795 234.014 11.9734 232.691 13.1613C231.395 14.3493 230.653 15.9961 230.464 18.102H244.476Z" fill="white"/>
<path d="M219.584 30.8182L210.878 21.018V30.8182H207.192V0.850586H210.878V18.4667L219.422 8.62597H224.566L214.117 19.6816L224.606 30.8182H219.584Z" fill="white"/>
<path d="M181.217 19.6813C181.217 17.3865 181.676 15.3887 182.594 13.6878C183.512 11.9599 184.781 10.6235 186.4 9.67862C188.047 8.73369 189.924 8.26123 192.029 8.26123C194.756 8.26123 196.997 8.92268 198.752 10.2456C200.534 11.5685 201.708 13.4043 202.275 15.7531H198.306C197.928 14.4032 197.186 13.3368 196.079 12.5539C194.999 11.771 193.649 11.3795 192.029 11.3795C189.924 11.3795 188.223 12.1084 186.927 13.5663C185.631 14.9972 184.983 17.0355 184.983 19.6813C184.983 22.3541 185.631 24.4195 186.927 25.8773C188.223 27.3352 189.924 28.0642 192.029 28.0642C193.649 28.0642 194.999 27.6862 196.079 26.9303C197.159 26.1743 197.901 25.0944 198.306 23.6905H202.275C201.681 25.9583 200.493 27.7807 198.711 29.1576C196.93 30.5075 194.702 31.1824 192.029 31.1824C189.924 31.1824 188.047 30.71 186.4 29.765C184.781 28.8201 183.512 27.4837 182.594 25.7559C181.676 24.028 181.217 22.0032 181.217 19.6813Z" fill="white"/>
<path d="M153.85 19.6408C153.85 17.373 154.309 15.3887 155.227 13.6878C156.145 11.9599 157.4 10.6235 158.993 9.67862C160.613 8.73369 162.408 8.26123 164.379 8.26123C166.323 8.26123 168.01 8.6797 169.441 9.51663C170.872 10.3536 171.938 11.4065 172.64 12.6754V8.6257H176.366V30.818H172.64V26.6873C171.911 27.9832 170.818 29.0631 169.36 29.927C167.929 30.764 166.255 31.1824 164.339 31.1824C162.368 31.1824 160.586 30.6965 158.993 29.7245C157.4 28.7526 156.145 27.3892 155.227 25.6344C154.309 23.8795 153.85 21.8817 153.85 19.6408ZM172.64 19.6813C172.64 18.0075 172.303 16.5496 171.628 15.3077C170.953 14.0658 170.035 13.1209 168.874 12.4729C167.74 11.798 166.485 11.4605 165.108 11.4605C163.731 11.4605 162.476 11.7845 161.342 12.4324C160.208 13.0804 159.303 14.0253 158.628 15.2672C157.954 16.5091 157.616 17.967 157.616 19.6408C157.616 21.3417 157.954 22.8266 158.628 24.0955C159.303 25.3374 160.208 26.2958 161.342 26.9708C162.476 27.6187 163.731 27.9427 165.108 27.9427C166.485 27.9427 167.74 27.6187 168.874 26.9708C170.035 26.2958 170.953 25.3374 171.628 24.0955C172.303 22.8266 172.64 21.3552 172.64 19.6813Z" fill="white"/>
<path d="M143.805 12.2299C144.453 10.961 145.371 9.97557 146.559 9.27362C147.774 8.57168 149.245 8.2207 150.973 8.2207V12.0274H150.001C145.87 12.0274 143.805 14.2682 143.805 18.7499V30.8179H140.12V8.62567H143.805V12.2299Z" fill="white"/>
<path d="M135.583 2.5918V5.58856H127.889V30.8181H124.204V5.58856H116.469V2.5918H135.583Z" fill="white"/>
<path d="M84.2437 5.02161C83.5418 5.02161 82.9478 4.77863 82.4618 4.29266C81.9759 3.8067 81.7329 3.21275 81.7329 2.5108C81.7329 1.80886 81.9759 1.2149 82.4618 0.728943C82.9478 0.242981 83.5418 0 84.2437 0C84.9187 0 85.4856 0.242981 85.9446 0.728943C86.4305 1.2149 86.6735 1.80886 86.6735 2.5108C86.6735 3.21275 86.4305 3.8067 85.9446 4.29266C85.4856 4.77863 84.9187 5.02161 84.2437 5.02161ZM86.0256 8.62582V30.8181H82.3404V8.62582H86.0256Z" fill="white"/>
<path d="M53.5967 19.6411C53.5967 17.3733 54.0556 15.3889 54.9736 13.6881C55.8915 11.9602 57.1469 10.6238 58.7398 9.67889C60.3596 8.73397 62.1685 8.2615 64.1664 8.2615C65.8942 8.2615 67.5006 8.66647 68.9855 9.47641C70.4704 10.2593 71.6043 11.2988 72.3872 12.5947V0.850586H76.1129V30.8182H72.3872V26.6471C71.6583 27.97 70.5783 29.0634 69.1475 29.9273C67.7166 30.7642 66.0427 31.1827 64.1259 31.1827C62.155 31.1827 60.3596 30.6967 58.7398 29.7248C57.1469 28.7529 55.8915 27.3895 54.9736 25.6346C54.0556 23.8798 53.5967 21.8819 53.5967 19.6411ZM72.3872 19.6816C72.3872 18.0077 72.0497 16.5499 71.3748 15.308C70.6998 14.066 69.7819 13.1211 68.621 12.4732C67.4871 11.7982 66.2317 11.4608 64.8548 11.4608C63.4779 11.4608 62.2225 11.7847 61.0886 12.4327C59.9547 13.0806 59.0503 14.0256 58.3753 15.2675C57.7004 16.5094 57.3629 17.9672 57.3629 19.6411C57.3629 21.342 57.7004 22.8269 58.3753 24.0958C59.0503 25.3377 59.9547 26.2961 61.0886 26.971C62.2225 27.619 63.4779 27.943 64.8548 27.943C66.2317 27.943 67.4871 27.619 68.621 26.971C69.7819 26.2961 70.6998 25.3377 71.3748 24.0958C72.0497 22.8269 72.3872 21.3555 72.3872 19.6816Z" fill="white"/>
<path d="M48.7511 8.62598V30.8182H45.0659V27.538C44.364 28.6719 43.3785 29.5628 42.1096 30.2108C40.8677 30.8317 39.4909 31.1422 37.979 31.1422C36.2511 31.1422 34.6987 30.7912 33.3218 30.0893C31.9449 29.3603 30.8515 28.2804 30.0416 26.8495C29.2587 25.4187 28.8672 23.6773 28.8672 21.6255V8.62598H32.5119V21.1395C32.5119 23.3263 33.0654 25.0137 34.1723 26.2016C35.2792 27.3625 36.7911 27.943 38.7079 27.943C40.6788 27.943 42.2311 27.3355 43.365 26.1206C44.499 24.9057 45.0659 23.1373 45.0659 20.8155V8.62598H48.7511Z" fill="white"/>
<path d="M18.4666 24.5412H6.15552L3.88769 30.8182H0L10.2052 2.75391H14.4574L24.6221 30.8182H20.7344L18.4666 24.5412ZM17.4136 21.5444L12.311 7.28955L7.20843 21.5444H17.4136Z" fill="white"/>
<path d="M112.245 31.9728L107.145 26.8721M107.145 26.8721C108.017 25.9996 108.709 24.9637 109.181 23.8238C109.654 22.6838 109.897 21.462 109.897 20.2281C109.897 18.9942 109.654 17.7723 109.181 16.6324C108.709 15.4924 108.017 14.4566 107.145 13.5841C106.272 12.7116 105.236 12.0195 104.096 11.5473C102.956 11.0751 101.734 10.832 100.501 10.832C99.2666 10.832 98.0448 11.0751 96.9048 11.5473C95.7648 12.0195 94.729 12.7116 93.8565 13.5841C92.0944 15.3462 91.1045 17.7361 91.1045 20.2281C91.1045 22.72 92.0944 25.11 93.8565 26.8721C95.6186 28.6342 98.0085 29.6241 100.501 29.6241C102.993 29.6241 105.382 28.6342 107.145 26.8721Z" stroke="white" stroke-width="2.34895" stroke-linecap="round" stroke-linejoin="round"/>
<g clip-path="url(#clip0_173_12286)">
<path d="M96.4592 19.3023V20.4972M98.0524 17.7091V22.0904M99.6456 16.5142V23.6836M101.239 18.5057V21.2938M102.832 17.3108V22.4887M104.425 19.3023V20.4972" stroke="#509CDB" stroke-width="0.796599" stroke-linecap="round" stroke-linejoin="round"/>
</g>
<path d="M112.245 31.9728L107.145 26.8721M107.145 26.8721C108.017 25.9996 108.709 24.9637 109.181 23.8238C109.654 22.6838 109.897 21.462 109.897 20.2281C109.897 18.9942 109.654 17.7723 109.181 16.6324C108.709 15.4924 108.017 14.4566 107.145 13.5841C106.272 12.7116 105.236 12.0195 104.096 11.5473C102.956 11.0751 101.734 10.832 100.501 10.832C99.2666 10.832 98.0448 11.0751 96.9048 11.5473C95.7648 12.0195 94.729 12.7116 93.8565 13.5841C92.0944 15.3462 91.1045 17.7361 91.1045 20.2281C91.1045 22.72 92.0944 25.11 93.8565 26.8721C95.6186 28.6342 98.0085 29.6241 100.501 29.6241C102.993 29.6241 105.382 28.6342 107.145 26.8721Z" stroke="white" stroke-width="2.34895" stroke-linecap="round" stroke-linejoin="round"/>
<g clip-path="url(#clip1_173_12286)">
<path d="M96.4592 19.3023V20.4972M98.0524 17.7091V22.0904M99.6456 16.5142V23.6836M101.239 18.5057V21.2938M102.832 17.3108V22.4887M104.425 19.3023V20.4972" stroke="#509CDB" stroke-width="0.796599" stroke-linecap="round" stroke-linejoin="round"/>
</g>
<defs>
<clipPath id="clip0_173_12286">
<rect width="9.55919" height="9.55919" fill="white" transform="translate(95.6626 15.3193)"/>
</clipPath>
<clipPath id="clip1_173_12286">
<rect width="9.55919" height="9.55919" fill="white" transform="translate(95.6626 15.3193)"/>
</clipPath>
</defs>
</svg>
